<mxfile host="app.diagrams.net" modified="2023-06-18T13:06:34.247Z" agent="Mozilla/5.0 (X11; Linux x86_64; rv:114.0) Gecko/20100101 Firefox/114.0" etag="jvnAeMXNp4nAQUM4PLkR" version="21.4.0" type="device">
  <diagram id="Zil61zwjYDij4pZceLh2" name="Page-1">
    <mxGraphModel dx="1394" dy="835" grid="1" gridSize="10" guides="1" tooltips="1" connect="1" arrows="1" fold="1" page="1" pageScale="1" pageWidth="850" pageHeight="1100" math="0" shadow="0">
      <root>
        <mxCell id="0" />
        <mxCell id="1" parent="0" />
        <mxCell id="lksKip3ntNmxQO8XyVvW-3" value="" style="endArrow=block;startArrow=block;endFill=1;startFill=1;html=1;" parent="1" edge="1">
          <mxGeometry width="160" relative="1" as="geometry">
            <mxPoint x="81" y="360" as="sourcePoint" />
            <mxPoint x="160" y="360" as="targetPoint" />
          </mxGeometry>
        </mxCell>
        <mxCell id="lksKip3ntNmxQO8XyVvW-4" value="" style="endArrow=block;startArrow=block;endFill=1;startFill=1;html=1;" parent="1" edge="1">
          <mxGeometry width="160" relative="1" as="geometry">
            <mxPoint x="160" y="360" as="sourcePoint" />
            <mxPoint x="280" y="360" as="targetPoint" />
          </mxGeometry>
        </mxCell>
        <mxCell id="lksKip3ntNmxQO8XyVvW-5" value="" style="endArrow=block;startArrow=block;endFill=1;startFill=1;html=1;" parent="1" edge="1">
          <mxGeometry width="160" relative="1" as="geometry">
            <mxPoint x="280" y="360" as="sourcePoint" />
            <mxPoint x="400" y="360" as="targetPoint" />
          </mxGeometry>
        </mxCell>
        <mxCell id="lksKip3ntNmxQO8XyVvW-6" value="" style="endArrow=block;startArrow=block;endFill=1;startFill=1;html=1;" parent="1" edge="1">
          <mxGeometry width="160" relative="1" as="geometry">
            <mxPoint x="400" y="360" as="sourcePoint" />
            <mxPoint x="520" y="360" as="targetPoint" />
            <Array as="points">
              <mxPoint x="430" y="360" />
            </Array>
          </mxGeometry>
        </mxCell>
        <mxCell id="lksKip3ntNmxQO8XyVvW-7" value="Foreground" style="rounded=1;whiteSpace=wrap;html=1;" parent="1" vertex="1">
          <mxGeometry x="40" y="400" width="80" height="40" as="geometry" />
        </mxCell>
        <mxCell id="lksKip3ntNmxQO8XyVvW-8" value="Background" style="rounded=1;whiteSpace=wrap;html=1;" parent="1" vertex="1">
          <mxGeometry x="560" y="400" width="80" height="40" as="geometry" />
        </mxCell>
        <mxCell id="lksKip3ntNmxQO8XyVvW-10" value="" style="endArrow=classic;html=1;" parent="1" source="lksKip3ntNmxQO8XyVvW-7" edge="1">
          <mxGeometry width="50" height="50" relative="1" as="geometry">
            <mxPoint x="110" y="390" as="sourcePoint" />
            <mxPoint x="80" y="360" as="targetPoint" />
          </mxGeometry>
        </mxCell>
        <mxCell id="lksKip3ntNmxQO8XyVvW-11" value="&lt;div&gt;Base1&lt;/div&gt;" style="rounded=1;whiteSpace=wrap;html=1;" parent="1" vertex="1">
          <mxGeometry x="120" y="280" width="80" height="40" as="geometry" />
        </mxCell>
        <mxCell id="lksKip3ntNmxQO8XyVvW-12" value="Base2" style="rounded=1;whiteSpace=wrap;html=1;" parent="1" vertex="1">
          <mxGeometry x="240" y="280" width="80" height="40" as="geometry" />
        </mxCell>
        <mxCell id="lksKip3ntNmxQO8XyVvW-13" value="Base3" style="rounded=1;whiteSpace=wrap;html=1;" parent="1" vertex="1">
          <mxGeometry x="360" y="280" width="80" height="40" as="geometry" />
        </mxCell>
        <mxCell id="lksKip3ntNmxQO8XyVvW-14" value="Base4" style="rounded=1;whiteSpace=wrap;html=1;" parent="1" vertex="1">
          <mxGeometry x="480" y="280" width="80" height="40" as="geometry" />
        </mxCell>
        <mxCell id="lksKip3ntNmxQO8XyVvW-15" value="" style="endArrow=block;startArrow=block;endFill=1;startFill=1;html=1;" parent="1" edge="1">
          <mxGeometry width="160" relative="1" as="geometry">
            <mxPoint x="520" y="360" as="sourcePoint" />
            <mxPoint x="600" y="360" as="targetPoint" />
          </mxGeometry>
        </mxCell>
        <mxCell id="lksKip3ntNmxQO8XyVvW-22" value="" style="endArrow=classic;html=1;" parent="1" source="lksKip3ntNmxQO8XyVvW-13" edge="1">
          <mxGeometry width="50" height="50" relative="1" as="geometry">
            <mxPoint x="440" y="320" as="sourcePoint" />
            <mxPoint x="400" y="360" as="targetPoint" />
          </mxGeometry>
        </mxCell>
        <mxCell id="lksKip3ntNmxQO8XyVvW-23" value="" style="endArrow=classic;html=1;" parent="1" source="lksKip3ntNmxQO8XyVvW-14" edge="1">
          <mxGeometry width="50" height="50" relative="1" as="geometry">
            <mxPoint x="600.0000000000002" y="330" as="sourcePoint" />
            <mxPoint x="520" y="360" as="targetPoint" />
          </mxGeometry>
        </mxCell>
        <mxCell id="lksKip3ntNmxQO8XyVvW-24" value="" style="endArrow=classic;html=1;exitX=0.5;exitY=1;exitDx=0;exitDy=0;" parent="1" source="lksKip3ntNmxQO8XyVvW-12" edge="1">
          <mxGeometry width="50" height="50" relative="1" as="geometry">
            <mxPoint x="369" y="430" as="sourcePoint" />
            <mxPoint x="280" y="360" as="targetPoint" />
          </mxGeometry>
        </mxCell>
        <mxCell id="lksKip3ntNmxQO8XyVvW-25" value="" style="endArrow=classic;html=1;" parent="1" source="lksKip3ntNmxQO8XyVvW-8" edge="1">
          <mxGeometry width="50" height="50" relative="1" as="geometry">
            <mxPoint x="640" y="400" as="sourcePoint" />
            <mxPoint x="600" y="360" as="targetPoint" />
          </mxGeometry>
        </mxCell>
        <mxCell id="lksKip3ntNmxQO8XyVvW-26" value="" style="endArrow=classic;html=1;" parent="1" source="lksKip3ntNmxQO8XyVvW-11" edge="1">
          <mxGeometry width="50" height="50" relative="1" as="geometry">
            <mxPoint x="80" y="460" as="sourcePoint" />
            <mxPoint x="160" y="360" as="targetPoint" />
          </mxGeometry>
        </mxCell>
      </root>
    </mxGraphModel>
  </diagram>
</mxfile>
